PathFileType	4	(X/Y/Z)	C:/Users/beibeiliu/ov580/test_trc\sequence.31_training_dense_right.trc
DataRate	CameraRate	NumFrames	NumMarkers	Units	OrigDataRate	OrigDataStartFrame	OrigNumFrames
120	120	25	19	mm	120	36	71
Frame#	Time	ThumbCMC			ThumbMCP			ThumbIP			ThumbTip			IndexMCP			IndexPIP			IndexTip			MiddleMCP			MiddlePIP			MiddleTip			RingMCP			RingPIP			RingTip			PinkyMCP			PinkyPIP			PinkyTip			BackHand1			BackHand2			BackHand3	
		X0	Y0	Z0	X1	Y1	Z1	X2	Y2	Z2	X3	Y3	Z3	X4	Y4	Z4	X5	Y5	Z5	X6	Y6	Z6	X7	Y7	Z7	X8	Y8	Z8	X9	Y9	Z9	X10	Y10	Z10	X11	Y11	Z11	X12	Y12	Z12	X13	Y13	Z13	X14	Y14	Z14	X15	Y15	Z15	X16	Y16	Z16	X17	Y17	Z17	X18	Y18	Z18	
35	0.291667	83.5358	40.8399	9.9433	78.901	22.413	-23.1565	87.3905	16.3182	-43.4341	107.135	17.5322	-57.7662	79.5799	65.6034	-55.9825	82.3824	63.1968	-74.7493	77.6612	63.8558	-95.8882	98.6754	66.7967	-64.1074	96.9246	64.8897	-85.0471	98.441	64.2442	-108.97	120.787	43.9839	-55.7016	113.06	16.2043	-51.714	114.551	15.7573	-22.083	132.002	36.588	-46.069	126.646	18.0852	-38.8108	119.055	21.4439	-12.8883	120.856	71.7067	-11.003	124.705	69.6337	17.8872	99.2517	71.0208	2.55294	
36	0.3	69.9334	42.519	7.08149	70.0984	18.0878	-14.0865	81.0879	10.1113	-40.2253	98.8193	7.45094	-52.7288	70.0761	53.9463	-57.4369	66.0075	47.5413	-77.0274	68.8264	42.2933	-96.7518	82.3285	53.5974	-65.2689	84.2275	46.7165	-84.8757	81.2881	40.2471	-111.269	106.923	37.1578	-53.5167	105.334	9.86276	-43.7667	102.631	14.7062	-16.9538	123.893	36.7058	-41.7299	117.227	12.6077	-28.4095	107.215	18.074	-10.1482	106.07	70.4177	-14.9645	106.244	76.4192	8.4138	82.8026	72.0575	1.0614	
37	0.308333	62.6663	42.6403	12.6716	61.971	11.7916	-6.15734	75.6299	-1.02737	-29.5011	94.7209	-4.80683	-40.8483	63.4645	37.7027	-54.4888	64.8472	27.568	-73.3065	60.6718	16.4343	-93.4264	79.6119	37.0998	-63.6207	82.374	24.1877	-81.8509	82.8562	10.2215	-103.736	101.711	25.4561	-48.7239	99.196	0.136535	-32.424	93.3787	8.96616	-9.27968	118.073	25.1678	-35.4062	110.164	7.26696	-18.3706	97.3297	19.9429	-0.46724	98.8125	67.9811	-17.289	100.169	77.9678	3.34249	72.946	68.3308	-8.25138	
38	0.316667	56.1979	44.9835	15.3048	55.4374	11.2636	3.06456	67.9366	-6.77445	-15.2271	85.0917	-15.9851	-23.1427	59.6957	22.4201	-52.1791	58.1555	8.11452	-66.9215	59.2132	-7.79225	-82.4631	78.9075	21.7505	-56.2423	75.0718	4.14485	-70.662	74.5294	-16.5055	-89.0004	94.5991	8.37011	-39.0247	94.1103	-9.58018	-21.5413	85.4596	5.04404	2.29574	111.666	15.6821	-26.3117	105.985	0.188745	-8.71075	91.8432	15.3222	6.69635	95.7536	58.5784	-17.2668	94.4943	73.7256	0.566848	70.7689	66.3051	-10.2543	
39	0.325	51.8948	48.4787	19.0187	50.1336	12.812	10.1813	60.2602	-6.21487	-0.465404	73.5192	-21.1679	-4.96947	52.3454	16.2549	-38.2648	49.0516	-2.83678	-51.2921	46.699	-23.3542	-63.0368	68.1992	5.89945	-46.2343	66.7641	-16.284	-55.9984	64.7514	-39.5929	-65.5048	89.2455	-5.65964	-24.722	81.081	-16.5349	-2.31033	77.9891	5.17156	16.3301	101.168	2.192	-14.2586	94.0668	-5.78705	8.89996	86.4853	17.5695	18.8303	98.8419	47.7395	-16.7335	101.567	68.2827	1.57841	71.319	61.9988	-10.632	
40	0.333333	58.2051	54.3052	16.47	46.9321	23.2923	18.6281	48.5744	-1.0848	12.522	61.0252	-19.8155	6.83118	49.9937	12.7816	-32.0078	45.08	-8.98032	-38.493	35.9966	-32.6252	-45.349	67.2931	-2.77872	-33.4611	56.1746	-21.5032	-36.9578	47.1871	-47.477	-42.5112	83.2821	-10.3049	-10.924	69.9763	-17.7345	12.8244	73.1026	3.42472	29.9887	97.7404	-9.34105	0.975618	86.0861	-7.80053	23.9245	84.1436	16.4625	30.23	100.549	36.4039	-13.3422	110.486	58.8956	-1.10991	83.2037	55.9986	-8.86697	
41	0.341667	71.1732	60.5939	15.1347	47.0744	37.7106	20.2714	46.0941	10.9301	14.0583	52.0582	-13.3352	13.6938	49.5739	15.85	-28.5102	38.5119	-4.98931	-32.2221	24.782	-21.6828	-34.6726	59.5193	-4.69076	-27.0252	48.4523	-23.5392	-27.3471	33.0977	-45.908	-27.7385	72.8727	-14.1397	-1.13756	59.1626	-13.8661	19.544	68.9894	10.6024	37.0475	91.389	-12.5846	9.45681	75.1039	-3.57291	30.4342	81.0833	16.943	36.3048	108.223	28.351	-9.27306	118.354	45.3703	1.6633	91.8235	54.4402	-8.84836	
42	0.35	84.0379	63.5382	14.3029	55.6395	49.6555	19.2682	44.382	23.733	15.3292	44.8007	-1.63535	16.3845	51.8634	18.4518	-24.9162	37.4847	5.81354	-27.1342	18.7321	-8.13834	-28.3971	57.789	-1.30162	-21.5929	42.9077	-13.2434	-22.0654	20.4624	-29.6481	-21.9844	65.4016	-5.58407	2.25487	51.4371	-3.91393	25.7492	59.8962	16.5602	39.4547	82.9109	-12.6501	16.1368	69.7165	-3.42579	35.8165	79.4242	22.3149	40.1891	110.7	22.0317	-4.6463	126.086	35.4055	4.96554	100.333	48.6048	-8.26566	
43	0.358333	93.5926	68.2245	16.8143	64.4062	57.6111	20.2217	48.6783	38.0897	18.3982	42.8942	16.293	19.77	58.028	29.7403	-21.2529	32.015	19.5666	-27.543	14.4882	11.1571	-27.4079	58.4947	11.5628	-17.4834	34.0375	2.9478	-21.2748	12.304	-8.05685	-20.3644	62.017	0.897189	3.88943	46.3991	9.39096	28.5526	61.5398	23.0693	43.7967	73.2534	-8.63518	19.8076	63.1322	6.63819	36.4819	78.7464	25.8845	42.1017	110.985	19.0896	-0.320028	129.715	29.0189	8.06961	111.824	44.9466	-2.34863	
44	0.366667	100.682	63.8796	18.9261	71.4794	64.3997	23.8107	51.7964	48.6477	22.7858	39.6966	27.7596	24.3484	55.8412	38.7663	-22.7155	35.9789	34.9556	-25.6642	12.8739	24.9173	-24.8286	53.793	21.0249	-17.0398	30.4711	13.5235	-18.7747	5.41653	9.60779	-18.7018	54.1553	9.74948	8.69338	44.2914	22.3845	31.2874	63.6107	32.7933	44.5493	67.6054	2.58021	20.2737	61.1763	15.9342	40.3214	77.9079	32.8009	40.5912	106.626	14.8803	-0.324159	131.586	23.7582	14.8768	115.585	44.7882	-0.200662	
45	0.375	105.591	63.827	21.2325	72.7648	68.2621	25.1713	49.8327	57.1929	24.6714	34.347	37.1033	27.667	62.002	43.4526	-19.0317	36.9623	45.1191	-24.347	11.194	41.5446	-24.8793	53.6777	29.0237	-16.2641	31.2424	28.4259	-18.7617	3.00789	24.7183	-17.2057	54.9862	18.8952	8.71223	44.009	32.5915	32.5919	65.4297	41.931	45.5091	59.7228	6.53573	25.0685	56.5758	22.9499	38.9621	79.6499	35.559	47.9683	104.518	16.5782	4.49067	130.415	15.6051	17.6542	114.95	43.3172	-0.510171	
46	0.383333	108.123	64.8685	22.0522	77.4179	71.1801	26.1258	49.7209	62.7983	26.0126	37.1805	48.8801	29.7887	61.5093	51.1539	-19.5115	37.63	49.9299	-22.9378	10.7675	51.5779	-23.7512	51.9966	33.1476	-13.9387	27.2041	37.7059	-17.7581	1.4743	39.3456	-16.282	50.7582	25.6296	10.1388	42.9713	42.1955	33.3527	66.7747	47.7837	45.5021	52.3984	12.5894	28.5238	57.1284	31.4507	46.1571	78.0841	40.3732	44.6193	95.1175	10.1526	7.89974	120.758	9.90847	18.4151	114.145	34.8258	2.992	
47	0.391667	111.356	56.9991	25.0796	79.5716	76.4296	26.2072	54.2844	73.2607	25.9954	36.7062	55.9654	28.493	63.0102	55.9732	-18.7708	36.8534	58.0081	-22.9474	17.2176	68.9373	-26.3471	45.9021	38.1447	-12.6427	22.2325	49.2747	-17.4264	-1.21933	59.122	-18.4496	44.8338	32.3086	12.2895	40.5615	50.3935	36.915	64.1119	52.9405	46.074	46.3762	22.0716	29.3251	51.6222	41.0412	42.531	75.4165	44.9461	45.7452	89.4995	7.96202	11.215	115.123	6.50716	23.6825	113	30.1418	7.41678	
48	0.4	109.531	55.269	24.6838	83.5969	78.6468	24.2473	55.3314	77.9256	21.0684	36.7611	69.3797	24.7834	57.5245	58.8762	-22.385	43.8248	69.6001	-27.8825	22.0496	77.9971	-29.8416	42.8085	45.6663	-15.106	25.345	60.347	-21.3751	2.64215	74.044	-24.2467	39.2291	43.1642	8.41567	35.9203	59.9059	28.9762	63.7823	54.8144	44.9929	39.0628	29.07	26.7034	44.2381	46.5048	44.8872	69.5438	47.3809	44.622	79.7708	8.7237	13.7512	99.7009	1.09914	24.839	105.468	25.5519	7.69466	
49	0.408333	104.47	49.6575	21.1115	81.2638	75.8629	14.0744	59.9275	81.8197	12.2375	35.7527	73.5882	12.9772	62.1035	57.1255	-26.5802	42.3019	71.9811	-37.0688	25.1043	85.0697	-43.4092	48.6063	48.9437	-22.6147	24.2492	64.1052	-31.48	9.48956	79.2166	-37.3716	33.5576	47.269	2.4972	35.7291	68.54	17.7377	59.4046	60.8137	36.9083	34.7516	36.5674	16.9677	38.8593	53.8488	35.6131	62.7644	52.1522	39.783	69.7607	9.92952	9.8796	89.6614	2.86114	25.522	99.298	20.0506	6.7118	
50	0.416667	103.277	50.5685	13.5222	83.967	76.6234	3.877	61.8724	80.3098	-2.75537	35.3884	75.6301	-5.0315	66.1076	51.3936	-40.3907	51.0208	63.5566	-52.8301	35.9061	75.1958	-62.3281	47.8	46.2487	-37.364	35.4719	59.0639	-47.6763	14.0097	72.0965	-57.6002	32.8362	46.9679	-10.846	33.6588	69.9504	2.30043	54.4564	63.3027	24.6184	30.7766	41.0191	5.85434	37.5785	61.5596	16.7366	56.3558	53.468	31.5197	65.7887	11.7262	3.20511	82.2378	1.88667	23.1348	94.1724	16.9677	6.76187	
51	0.425	105.89	47.9121	9.41856	85.995	67.5716	-12.3195	65.9653	71.5838	-20.6998	41.5089	68.8936	-26.3115	72.9754	35.5811	-47.4276	60.1456	44.7993	-63.8081	48.9356	55.5971	-83.4584	56.2003	31.1377	-45.2998	44.8073	42.1003	-64.0154	29.8213	56.189	-84.5425	36.4138	39.6068	-25.1663	40.6364	68.5443	-17.3794	54.8934	63.8431	6.9686	31.6305	40.0415	-10.0001	33.9322	59.7023	0.113563	58.4871	55.1767	16.0041	64.6414	8.15819	-0.0257709	75.564	1.81968	26.0482	95.2724	12.9886	3.42761	
52	0.433333	108.796	43.3719	2.46944	93.2854	61.3916	-23.5666	72.7093	59.2552	-36.7334	52.2743	58.9713	-45.7858	82.3816	19.529	-55.7644	75.6604	22.8504	-77.0626	60.7581	26.2467	-96.4535	65.1513	14.466	-54.9136	60.1192	21.7571	-75.0305	44.2624	27.6494	-96.9707	47.6622	30.6453	-40.1312	47.0567	56.3911	-35.6208	60.1134	58.9467	-9.23179	39.2581	30.0363	-22.8558	42.9549	53.9341	-18.9662	60.8737	53.5552	-0.181153	67.5422	2.36468	0.122081	80.8778	5.36236	27.1925	96.315	10.0696	4.70112	
53	0.441667	116.443	40.1471	1.69384	105.26	52.4843	-29.9403	87.8676	48.5858	-44.9368	64.6555	40.1964	-57.7819	101.551	2.95208	-49.9561	93.5571	0.0891105	-69.7438	84.6758	-2.12607	-91.1208	85.7915	-1.47264	-52.5567	76.4586	-1.85843	-78.1379	66.7392	-1.40031	-98.2102	60.419	14.5158	-45.1381	58.9248	40.277	-46.369	74.5663	48.6608	-21.2904	50.0591	16.2974	-28.0364	50.5042	40.8049	-29.0504	70.1709	46.9067	-12.1624	79.4447	-2.92715	4.74216	87.3017	4.52935	28.6395	109.655	6.05856	8.04497	
54	0.45	125.508	36.3368	4.13767	118.643	40.5724	-27.4019	104.598	29.9097	-48.0045	88.3962	22.7978	-58.567	122.062	-14.4419	-42.3322	119.39	-22.4738	-63.8202	114.22	-28.4621	-80.9989	107.528	-20.0259	-44.5168	102.823	-25.3021	-69.9172	98.5006	-27.184	-90.7025	84.6266	-2.73455	-42.8429	77.0014	20.6028	-49.5274	86.0694	36.5146	-28.4916	69.594	1.73171	-31.1134	71.2806	25.1403	-34.2492	84.0242	35.4639	-11.572	97.0499	-7.52659	7.90641	97.0566	5.49282	34.3573	123.451	3.30376	14.3359	
55	0.458333	136.61	35.3943	5.83227	132.801	30.8711	-26.9981	123.557	21.2358	-44.8367	107.133	4.08211	-54.6369	148.514	-19.3142	-29.3667	145.067	-32.0151	-48.5937	143.068	-40.5258	-67.3355	132.491	-29.7737	-30.4524	131.488	-39.0065	-54.6066	123.94	-43.2175	-82.4661	105.502	-18.0282	-31.9354	103.041	7.25803	-47.4654	99.3077	25.9372	-27.2888	92.4532	-13.7863	-23.3503	87.6202	9.70297	-34.1025	99.9586	25.3944	-17.7841	114.346	-11.9423	17.0589	110.404	8.02531	39.1203	139.964	8.18771	21.9828	
56	0.466667	143.331	42.1308	7.45677	139.985	36.1873	-26.2369	135.54	19.4122	-41.9712	125.41	1.77941	-53.1625	166.919	-10.1805	-24.9043	170.039	-19.0071	-43.7366	167.401	-28.9076	-68.0518	156.397	-23.3347	-24.0492	155.756	-34.002	-47.1385	149.797	-35.7688	-75.824	130.855	-17.2663	-27.4164	115.026	0.116185	-44.4912	109.641	20.0894	-26.9498	115.626	-17.6955	-20.1134	103.435	0.570905	-32.4485	105.86	19.8882	-14.7203	130.627	-7.29414	22.5861	124.705	9.59515	42.3708	149.477	15.3698	26.0163	
57	0.475	130.207	59.7828	8.82516	127.929	52.4403	-26.726	128.509	35.5793	-46.3104	126	18.6382	-52.1811	168.675	28.8507	-34.0849	168.095	19.6784	-56.4614	162.848	13.3303	-79.7356	163.395	6.6552	-33.5005	163.799	1.10709	-61.0602	153.158	-3.35467	-83.6217	139.192	-1.07208	-30.6201	118.558	11.2925	-44.7117	110.179	30.3671	-23.846	125.199	-8.93102	-24.0985	111.72	8.52689	-31.907	108.087	27.9122	-10.5757	146.223	11.2387	18.724	135.623	17.9583	39.0005	151.207	36.2058	23.419	
58	0.483333	92.0732	76.0044	9.04458	79.9576	70.0153	-21.4695	84.4319	60.8929	-43.9944	97.7391	42.6825	-55.9698	124.702	82.6023	-43.6354	122.451	82.8944	-69.1702	118.653	77.575	-89.7115	134.6	65.3594	-46.7344	131.39	59.5998	-75.778	120.277	56.423	-100.134	123.714	45.7599	-43.5604	97.7541	34.3176	-45.1418	88.8841	40.2954	-21.4972	122.985	26.2595	-33.8019	98.1034	26.4142	-31.7459	92.1374	36.1292	-7.44254	136.721	49.0838	6.63054	129.563	48.1861	33.8835	124.007	74.0862	17.7567	
59	0.491667	67.2875	75.7198	12.3037	49.8755	67.8759	-18.0027	62.0319	60.8334	-40.2391	71.8204	50.5812	-55.546	79.7667	104.094	-43.3422	77.9028	102.687	-66.0847	75.4058	99.7387	-89.6714	96.0616	91.7441	-54.2787	90.1683	90.4671	-78.19	82.5712	85.688	-99.7305	98.8794	63.4884	-49.9657	78.9893	43.4667	-47.2362	76.8075	41.6911	-20.1066	108.056	48.3822	-39.9459	87.579	34.6362	-32.9342	83.4714	42.66	-9.68616	116.225	76.0969	-5.51446	116.75	68.9086	25.8504	98.5137	89.0909	15.358	
